<mxfile host="app.diagrams.net" modified="2023-12-20T16:15:25.040Z" agent="Mozilla/5.0 (X11; Linux x86_64; rv:109.0) Gecko/20100101 Firefox/115.0" etag="ReHUkSCQfJTg_ejFU_kp" version="22.1.11" type="device">
  <diagram name="P치gina-1" id="7FCJT3y6nY-dneyDCJVO">
    <mxGraphModel dx="1165" dy="588" grid="1" gridSize="10" guides="1" tooltips="1" connect="1" arrows="1" fold="1" page="1" pageScale="1" pageWidth="1169" pageHeight="827" background="#c8e5f3" math="0" shadow="0">
      <root>
        <mxCell id="0" />
        <mxCell id="1" parent="0" />
        <mxCell id="Ui8Gct2c3VHxR6yGG-sh-1" value="&lt;font style=&quot;font-size: 13px;&quot;&gt;&lt;b style=&quot;font-size: 25px;&quot;&gt;&lt;i&gt;Diagrama 0: Gesti칩n videoclub&lt;br&gt;&lt;/i&gt;&lt;/b&gt;&lt;/font&gt;" style="rounded=1;whiteSpace=wrap;html=1;" vertex="1" parent="1">
          <mxGeometry x="300" y="80" width="440" height="40" as="geometry" />
        </mxCell>
        <mxCell id="Ui8Gct2c3VHxR6yGG-sh-7" style="edgeStyle=orthogonalEdgeStyle;rounded=0;orthogonalLoop=1;jettySize=auto;html=1;exitX=0.25;exitY=1;exitDx=0;exitDy=0;entryX=0.5;entryY=1;entryDx=0;entryDy=0;" edge="1" parent="1" source="Ui8Gct2c3VHxR6yGG-sh-2" target="Ui8Gct2c3VHxR6yGG-sh-3">
          <mxGeometry relative="1" as="geometry" />
        </mxCell>
        <mxCell id="Ui8Gct2c3VHxR6yGG-sh-8" style="edgeStyle=orthogonalEdgeStyle;rounded=0;orthogonalLoop=1;jettySize=auto;html=1;exitX=0.75;exitY=1;exitDx=0;exitDy=0;entryX=0.5;entryY=1;entryDx=0;entryDy=0;" edge="1" parent="1" source="Ui8Gct2c3VHxR6yGG-sh-2" target="Ui8Gct2c3VHxR6yGG-sh-4">
          <mxGeometry relative="1" as="geometry">
            <Array as="points">
              <mxPoint x="560" y="360" />
              <mxPoint x="820" y="360" />
            </Array>
          </mxGeometry>
        </mxCell>
        <mxCell id="Ui8Gct2c3VHxR6yGG-sh-2" value="Gesti칩n videoclub" style="rounded=0;whiteSpace=wrap;html=1;" vertex="1" parent="1">
          <mxGeometry x="440" y="240" width="160" height="80" as="geometry" />
        </mxCell>
        <mxCell id="Ui8Gct2c3VHxR6yGG-sh-5" style="edgeStyle=orthogonalEdgeStyle;rounded=0;orthogonalLoop=1;jettySize=auto;html=1;exitX=0.5;exitY=0;exitDx=0;exitDy=0;entryX=0.25;entryY=0;entryDx=0;entryDy=0;" edge="1" parent="1" source="Ui8Gct2c3VHxR6yGG-sh-3" target="Ui8Gct2c3VHxR6yGG-sh-2">
          <mxGeometry relative="1" as="geometry" />
        </mxCell>
        <mxCell id="Ui8Gct2c3VHxR6yGG-sh-3" value="Alquiler clientes" style="ellipse;whiteSpace=wrap;html=1;aspect=fixed;" vertex="1" parent="1">
          <mxGeometry x="160" y="220" width="120" height="120" as="geometry" />
        </mxCell>
        <mxCell id="Ui8Gct2c3VHxR6yGG-sh-6" style="edgeStyle=orthogonalEdgeStyle;rounded=0;orthogonalLoop=1;jettySize=auto;html=1;exitX=0.5;exitY=0;exitDx=0;exitDy=0;entryX=0.75;entryY=0;entryDx=0;entryDy=0;" edge="1" parent="1" source="Ui8Gct2c3VHxR6yGG-sh-4" target="Ui8Gct2c3VHxR6yGG-sh-2">
          <mxGeometry relative="1" as="geometry" />
        </mxCell>
        <mxCell id="Ui8Gct2c3VHxR6yGG-sh-4" value="Pedido proveedores" style="ellipse;whiteSpace=wrap;html=1;aspect=fixed;" vertex="1" parent="1">
          <mxGeometry x="760" y="220" width="120" height="120" as="geometry" />
        </mxCell>
        <mxCell id="Ui8Gct2c3VHxR6yGG-sh-9" value="1" style="text;html=1;align=center;verticalAlign=middle;resizable=0;points=[];autosize=1;strokeColor=none;fillColor=none;" vertex="1" parent="1">
          <mxGeometry x="205" y="220" width="30" height="30" as="geometry" />
        </mxCell>
        <mxCell id="Ui8Gct2c3VHxR6yGG-sh-10" value="2" style="text;html=1;align=center;verticalAlign=middle;resizable=0;points=[];autosize=1;strokeColor=none;fillColor=none;" vertex="1" parent="1">
          <mxGeometry x="805" y="220" width="30" height="30" as="geometry" />
        </mxCell>
        <mxCell id="Ui8Gct2c3VHxR6yGG-sh-11" value="&lt;font style=&quot;font-size: 10px;&quot;&gt;Datos alquiler o devoluci칩n&lt;/font&gt;" style="text;html=1;align=center;verticalAlign=middle;resizable=0;points=[];autosize=1;strokeColor=none;fillColor=none;" vertex="1" parent="1">
          <mxGeometry x="280" y="178" width="140" height="30" as="geometry" />
        </mxCell>
        <mxCell id="Ui8Gct2c3VHxR6yGG-sh-12" value="&lt;font style=&quot;font-size: 10px;&quot;&gt;Datos clientes&lt;/font&gt;" style="text;html=1;align=center;verticalAlign=middle;resizable=0;points=[];autosize=1;strokeColor=none;fillColor=none;" vertex="1" parent="1">
          <mxGeometry x="300" y="358" width="90" height="30" as="geometry" />
        </mxCell>
        <mxCell id="Ui8Gct2c3VHxR6yGG-sh-14" value="&lt;font style=&quot;font-size: 10px;&quot;&gt;Datos pedidos&lt;/font&gt;" style="text;html=1;align=center;verticalAlign=middle;resizable=0;points=[];autosize=1;strokeColor=none;fillColor=none;" vertex="1" parent="1">
          <mxGeometry x="635" y="358" width="90" height="30" as="geometry" />
        </mxCell>
        <mxCell id="Ui8Gct2c3VHxR6yGG-sh-15" value="&lt;font style=&quot;font-size: 10px;&quot;&gt;Datos factura&lt;/font&gt;" style="text;html=1;align=center;verticalAlign=middle;resizable=0;points=[];autosize=1;strokeColor=none;fillColor=none;" vertex="1" parent="1">
          <mxGeometry x="640" y="178" width="80" height="30" as="geometry" />
        </mxCell>
      </root>
    </mxGraphModel>
  </diagram>
</mxfile>
